<?xml version="1.0" encoding="UTF-8" standalone="no"?>
<!-- Created with Inkscape (http://www.inkscape.org/) -->

<svg
   xmlns:dc="http://purl.org/dc/elements/1.1/"
   xmlns:cc="http://creativecommons.org/ns#"
   xmlns:rdf="http://www.w3.org/1999/02/22-rdf-syntax-ns#"
   xmlns:svg="http://www.w3.org/2000/svg"
   xmlns="http://www.w3.org/2000/svg"
   xmlns:sodipodi="http://sodipodi.sourceforge.net/DTD/sodipodi-0.dtd"
   xmlns:inkscape="http://www.inkscape.org/namespaces/inkscape"
   width="960pt"
   height="480pt"
   viewBox="0 0 338.66668 169.33333"
   version="1.1"
   id="svg8"
   sodipodi:docname="repo_card.svg"
   inkscape:version="0.92.5 (2060ec1f9f, 2020-04-08)"
   inkscape:export-filename="/home/benny/Documents/tiff2vtk/reference_images/repo_card.png"
   inkscape:export-xdpi="96"
   inkscape:export-ydpi="96">
  <defs
     id="defs2">
    <marker
       inkscape:stockid="Arrow1Lstart"
       orient="auto"
       refY="0"
       refX="0"
       id="marker1256"
       style="overflow:visible"
       inkscape:isstock="true">
      <path
         id="path1254"
         d="M 0,0 5,-5 -12.5,0 5,5 Z"
         style="fill-rule:evenodd;stroke:#000000;stroke-width:1.00000003pt"
         transform="matrix(0.8,0,0,0.8,10,0)"
         inkscape:connector-curvature="0" />
    </marker>
    <marker
       inkscape:stockid="Arrow1Mstart"
       orient="auto"
       refY="0"
       refX="0"
       id="Arrow1Mstart"
       style="overflow:visible"
       inkscape:isstock="true">
      <path
         id="path899"
         d="M 0,0 5,-5 -12.5,0 5,5 Z"
         style="fill-rule:evenodd;stroke:#000000;stroke-width:1.00000003pt"
         transform="matrix(0.4,0,0,0.4,4,0)"
         inkscape:connector-curvature="0" />
    </marker>
    <marker
       inkscape:stockid="Arrow1Lend"
       orient="auto"
       refY="0"
       refX="0"
       id="Arrow1Lend"
       style="overflow:visible"
       inkscape:isstock="true">
      <path
         id="path896"
         d="M 0,0 5,-5 -12.5,0 5,5 Z"
         style="fill-rule:evenodd;stroke:#000000;stroke-width:1.00000003pt"
         transform="matrix(-0.8,0,0,-0.8,-10,0)"
         inkscape:connector-curvature="0" />
    </marker>
    <marker
       inkscape:stockid="Arrow1Lstart"
       orient="auto"
       refY="0"
       refX="0"
       id="Arrow1Lstart"
       style="overflow:visible"
       inkscape:isstock="true">
      <path
         id="path893"
         d="M 0,0 5,-5 -12.5,0 5,5 Z"
         style="fill-rule:evenodd;stroke:#000000;stroke-width:1.00000003pt"
         transform="matrix(0.8,0,0,0.8,10,0)"
         inkscape:connector-curvature="0" />
    </marker>
    <clipPath
       id="clipPath858"
       clipPathUnits="userSpaceOnUse">
      <path
         inkscape:connector-curvature="0"
         id="path856"
         d="M 0,0 H 157 V 37 H 0 Z" />
    </clipPath>
  </defs>
  <sodipodi:namedview
     id="base"
     pagecolor="#ffffff"
     bordercolor="#666666"
     borderopacity="1.0"
     inkscape:pageopacity="0.0"
     inkscape:pageshadow="2"
     inkscape:zoom="0.69999999"
     inkscape:cx="643.90733"
     inkscape:cy="384.44454"
     inkscape:document-units="mm"
     inkscape:current-layer="layer1"
     showgrid="false"
     inkscape:window-width="1848"
     inkscape:window-height="1016"
     inkscape:window-x="72"
     inkscape:window-y="27"
     inkscape:window-maximized="1"
     inkscape:snap-bbox="false"
     inkscape:snap-bbox-edge-midpoints="true"
     inkscape:bbox-nodes="true"
     showguides="false"
     inkscape:snap-intersection-paths="true"
     units="pt"
     fit-margin-top="0"
     fit-margin-left="0"
     fit-margin-right="0"
     fit-margin-bottom="0" />
  <metadata
     id="metadata5">
    <rdf:RDF>
      <cc:Work
         rdf:about="">
        <dc:format>image/svg+xml</dc:format>
        <dc:type
           rdf:resource="http://purl.org/dc/dcmitype/StillImage" />
        <dc:title />
      </cc:Work>
    </rdf:RDF>
  </metadata>
  <g
     inkscape:label="Layer 1"
     inkscape:groupmode="layer"
     id="layer1"
     transform="translate(0,-127.66667)"
     style="display:none">
    <rect
       style="fill:#ffffff;fill-opacity:1;stroke:none;stroke-width:3.59833312;stroke-miterlimit:4;stroke-dasharray:none;stroke-dashoffset:0;stroke-opacity:1"
       id="rect815"
       width="338.66666"
       height="169.33333"
       x="0"
       y="127.66667"
       inkscape:export-xdpi="96"
       inkscape:export-ydpi="96" />
    <rect
       style="fill:#ffffff;fill-opacity:1;stroke:none;stroke-width:3.59833336;stroke-miterlimit:4;stroke-dasharray:none;stroke-dashoffset:0;stroke-opacity:1"
       id="rect1252"
       width="310.44452"
       height="141.11108"
       x="14.111069"
       y="141.7778"
       inkscape:export-xdpi="96"
       inkscape:export-ydpi="96" />
    <flowRoot
       xml:space="preserve"
       id="flowRoot1215"
       style="font-style:normal;font-variant:normal;font-weight:normal;font-stretch:normal;font-size:16px;line-height:1.25;font-family:'Nimbus Sans';-inkscape-font-specification:'Nimbus Sans';letter-spacing:0px;word-spacing:0px;fill:#000000;fill-opacity:1;stroke:none"
       transform="scale(0.26458333)"><flowRegion
         id="flowRegion1217"><rect
           id="rect1219"
           width="303.04578"
           height="24.243662"
           x="703.06616"
           y="823.51453" /></flowRegion><flowPara
         id="flowPara1221" /></flowRoot>  </g>
  <g
     inkscape:groupmode="layer"
     id="layer2"
     inkscape:label="Layer 2">
    <g
       transform="matrix(0.64766248,0,0,0.64766248,222.85373,14.11113)"
       inkscape:label="hlrs_logo"
       id="g844"
       style="stroke-width:0.54469383"
       inkscape:export-xdpi="96"
       inkscape:export-ydpi="96">
      <g
         id="g846"
         style="stroke-width:0.54469383">
        <path
           inkscape:connector-curvature="0"
           id="path848"
           style="fill:#00adef;fill-opacity:1;fill-rule:nonzero;stroke:none;stroke-width:0.54469383"
           d="m 122.918,0.859 h 2.926 v 35.773 h -2.926 z" />
        <g
           id="g850"
           style="stroke-width:0.54469383">
          <g
             id="g852"
             style="stroke-width:0.54469383">
            <g
               clip-path="url(#clipPath858)"
               id="g854"
               style="stroke-width:0.54469383">
              <g
                 id="g860"
                 style="stroke-width:0.54469383">
                <path
                   inkscape:connector-curvature="0"
                   id="path862"
                   style="fill:#00adef;fill-opacity:1;fill-rule:nonzero;stroke:none;stroke-width:0.54469383"
                   d="m 135.031,1.23 c 0,0 -6.398,0.415 -10.496,0.407 -4.18,-0.012 -10.711,-0.469 -10.711,-0.469 V 0.605 c 0,0 5.035,-0.617 10.672,-0.605 5.383,0.012 10.535,0.578 10.535,0.578 z" />
                <path
                   inkscape:connector-curvature="0"
                   id="path864"
                   style="fill:#00adef;fill-opacity:1;fill-rule:nonzero;stroke:none;stroke-width:0.54469383"
                   d="m 135.016,36.32 c 0,0 -6.399,0.41 -10.496,0.403 -4.184,-0.008 -10.711,-0.469 -10.711,-0.469 v -0.563 c 0,0 5.035,-0.617 10.671,-0.605 5.379,0.012 10.536,0.578 10.536,0.578 z" />
                <path
                   inkscape:connector-curvature="0"
                   id="path866"
                   style="fill:#231f20;fill-opacity:1;fill-rule:nonzero;stroke:none;stroke-width:0.54469383"
                   d="M 88.191,25.672 V 11.547 h 12.098 c 2.164,0 3.176,0.769 3.176,2.738 v 3.313 c 0,1.972 -1.012,2.738 -3.176,2.738 H 98.43 l 0.101,0.086 -0.222,-0.078 5.875,5.328 h -3.95 l -5.695,-5.336 h -3.117 v 5.336 z M 98.813,13.984 h -7.391 v 3.942 h 7.391 c 1.011,0 1.476,-0.192 1.476,-1.121 v -1.7 c 0,-0.929 -0.465,-1.121 -1.476,-1.121" />
                <path
                   inkscape:connector-curvature="0"
                   id="path868"
                   style="fill:#231f20;fill-opacity:1;fill-rule:nonzero;stroke:none;stroke-width:0.54469383"
                   d="m 47.355,12.328 2.922,-0.015 0.024,11.55 11.297,-0.011 -0.012,2.394 H 48.582 c -0.719,0 -1.227,-0.66 -1.227,-1.379 z" />
                <path
                   inkscape:connector-curvature="0"
                   id="path870"
                   style="fill:#231f20;fill-opacity:1;fill-rule:nonzero;stroke:none;stroke-width:0.54469383"
                   d="M 2.238,26.043 V 19.949 C 1.758,19.969 0.859,19.922 0.527,19.938 L 0,17.512 h 2.238 v -5.594 h 3.285 v 5.477 h 10.266 v -5.477 h 3.313 V 26.043 H 15.789 V 19.969 H 5.523 v 6.074 z" />
                <path
                   inkscape:connector-curvature="0"
                   id="path872"
                   style="fill:#231f20;fill-opacity:1;fill-rule:nonzero;stroke:none;stroke-width:0.54469383"
                   d="m 153.836,13.949 v 1.614 l 2.902,-0.684 v -0.301 c 0,-2.437 -0.988,-3.094 -3.504,-3.094 h -8.019 c -2.656,0 -3.504,0.684 -3.504,3.34 v 1.559 c 0,2.656 0.848,3.34 3.504,3.34 h 8.812 v 3.23 h -9.992 v -1.668 l -2.902,0.602 v 0.383 c 0,2.656 0.879,3.339 3.535,3.339 h 8.73 c 2.653,0 3.532,-0.683 3.532,-3.339 v -1.946 c 0,-2.652 -0.879,-3.34 -3.532,-3.34 h -8.812 v -3.035 z" />
              </g>
            </g>
          </g>
        </g>
      </g>
    </g>
    <text
       transform="translate(0,-127.66667)"
       xml:space="preserve"
       style="font-style:normal;font-variant:normal;font-weight:normal;font-stretch:normal;font-size:50.79999924px;line-height:1.25;font-family:'Nimbus Sans';-inkscape-font-specification:'Nimbus Sans';letter-spacing:0px;word-spacing:0px;fill:#00adef;fill-opacity:1;stroke:none;stroke-width:0.26458332"
       x="44.947609"
       y="251.75443"
       id="text891"
       inkscape:export-xdpi="96"
       inkscape:export-ydpi="96"><tspan
         sodipodi:role="line"
         id="tspan889"
         x="44.947609"
         y="251.75443"
         style="font-style:normal;font-variant:normal;font-weight:600;font-stretch:normal;font-size:81.1388855px;font-family:'CMU Bright';-inkscape-font-specification:'CMU Bright, Semi-Bold';font-variant-ligatures:normal;font-variant-caps:normal;font-variant-numeric:normal;font-feature-settings:normal;text-align:start;writing-mode:lr-tb;text-anchor:start;fill:#00adef;fill-opacity:1;stroke-width:0.26458332"><tspan
   style="fill:#231f20;fill-opacity:1"
   id="tspan1201">tiff</tspan>2<tspan
   style="fill:#231f20;fill-opacity:1"
   id="tspan1223">vtk</tspan></tspan></text>
  </g>
</svg>
